<?xml version="1.0" standalone="no"?>
<!DOCTYPE svg PUBLIC "-//W3C//DTD SVG 20010904//EN"
 "http://www.w3.org/TR/2001/REC-SVG-20010904/DTD/svg10.dtd">
<svg version="1.0" xmlns="http://www.w3.org/2000/svg"
 width="400.000000pt" height="365.000000pt" viewBox="0 0 400.000000 365.000000"
 preserveAspectRatio="xMidYMid meet">
<metadata>
Created by potrace 1.15, written by Peter Selinger 2001-2017
</metadata>
<g transform="translate(0.000000,365.000000) scale(0.100000,-0.100000)"
fill="#000000" stroke="none">
<path d="M3315 3578 c4 -40 11 -77 16 -82 12 -13 12 -306 0 -306 -4 0 -11 -17
-14 -38 -2 -22 -15 -61 -28 -88 l-24 -49 -2 60 c-6 142 -39 295 -64 295 -5 0
-9 6 -9 13 -1 17 -58 82 -66 74 -4 -3 1 -22 10 -41 20 -43 21 -189 2 -298 -14
-77 -52 -204 -66 -223 -4 -5 -17 -42 -29 -81 -38 -128 -51 -276 -51 -576 0
-240 2 -278 15 -278 11 0 15 12 15 48 0 56 30 178 53 213 8 13 22 44 30 69 19
55 81 184 108 225 12 17 41 66 66 110 25 44 62 109 83 145 88 153 119 344 86
525 -30 160 -98 355 -123 355 -13 0 -14 -12 -8 -72z"/>
<path d="M3595 3390 c-4 -6 -1 -18 7 -27 17 -21 18 -269 1 -304 -6 -13 -18
-46 -27 -74 -25 -82 -73 -180 -111 -226 -105 -128 -217 -274 -232 -302 -8 -18
-26 -43 -39 -56 -27 -27 -75 -124 -100 -202 -9 -30 -21 -59 -25 -64 -16 -22
-39 -195 -39 -300 l0 -110 -20 25 c-11 14 -20 31 -20 38 0 17 -29 15 -36 -3
-4 -8 -10 -15 -16 -15 -5 0 -36 -18 -68 -40 -32 -22 -62 -40 -66 -40 -4 0 -30
-17 -58 -38 -28 -21 -77 -54 -110 -73 -32 -19 -68 -44 -80 -56 -11 -13 -26
-23 -32 -23 -23 0 -35 -26 -24 -54 8 -23 15 -26 54 -26 77 0 67 -23 -14 -32
-22 -3 -25 -9 -36 -88 -7 -47 -12 -86 -11 -86 1 -1 19 -9 39 -17 21 -9 38 -21
38 -26 0 -14 -4 -14 -47 4 -19 8 -39 15 -44 15 -5 0 -19 -21 -32 -48 -13 -26
-29 -57 -37 -69 -12 -19 -11 -24 18 -48 43 -36 30 -52 -14 -18 l-35 26 -21
-21 c-22 -21 -22 -21 -2 -57 10 -20 28 -47 40 -58 12 -12 29 -37 38 -55 20
-38 35 -40 73 -9 31 25 92 65 164 108 26 15 57 37 68 48 11 11 39 30 63 42 24
12 90 54 148 93 58 40 118 78 133 86 16 8 38 24 50 35 12 12 46 35 76 51 29
15 55 34 58 40 6 16 -30 86 -63 121 -14 15 -35 46 -46 68 -12 22 -34 60 -51
84 -29 42 -30 46 -18 90 16 62 83 198 118 240 84 102 112 130 181 173 42 26
84 51 94 54 10 3 18 9 18 14 0 7 49 39 124 80 43 24 100 74 206 180 82 83 100
107 128 175 27 63 35 96 39 172 4 66 3 93 -6 93 -6 0 -11 -4 -11 -8 0 -4 -21
-42 -47 -83 -57 -90 -175 -223 -217 -246 -77 -40 -103 -52 -136 -58 l-35 -8
36 44 c45 56 87 132 132 239 52 124 60 165 55 293 -4 108 -6 115 -47 192 -35
67 -100 155 -116 155 -2 0 -7 -5 -10 -10z"/>
<path d="M725 1498 c-2 -7 -16 -80 -30 -163 -14 -82 -28 -160 -30 -172 -5 -21
-2 -23 44 -23 54 0 50 -6 67 93 6 36 7 37 51 37 44 0 45 -1 40 -27 -3 -16 -8
-45 -12 -65 l-7 -38 51 0 c28 0 51 3 51 8 0 4 14 84 30 177 16 94 30 173 30
178 0 4 -22 7 -49 7 l-49 0 -12 -80 -12 -80 -46 0 -45 0 7 38 c3 20 9 56 13
80 l6 42 -47 0 c-28 0 -48 -5 -51 -12z"/>
<path d="M1673 1450 c-24 -11 -43 -21 -43 -23 0 -2 -9 -52 -20 -111 -16 -90
-18 -113 -7 -135 23 -48 95 -65 160 -37 39 16 61 40 75 84 l11 32 -48 0 c-40
0 -50 -3 -54 -20 -6 -24 -34 -37 -49 -22 -6 6 -7 27 -3 51 l7 41 68 0 c72 0
80 5 80 56 0 23 -3 24 -66 24 l-67 0 7 40 c7 45 7 45 -51 20z"/>
<path d="M1078 1374 c-38 -20 -58 -63 -65 -139 l-6 -64 34 -20 c73 -44 182
-14 203 57 7 21 4 22 -38 22 -25 0 -48 -4 -51 -10 -12 -19 -45 -11 -45 10 0
18 7 20 74 20 80 0 86 4 86 61 0 18 -10 39 -25 54 -20 21 -34 25 -82 25 -32
-1 -70 -7 -85 -16z"/>
<path d="M1353 1378 c-12 -6 -30 -27 -39 -46 -22 -47 -31 -157 -14 -177 20
-24 78 -30 115 -12 29 14 35 14 45 1 15 -17 60 -18 83 -1 9 6 19 24 23 40 5
23 3 27 -15 27 -12 0 -21 2 -21 4 0 2 7 40 15 83 8 43 15 81 15 85 0 11 -183
7 -207 -4z"/>
<path d="M3194 1254 c-60 -41 -122 -82 -139 -89 -16 -8 -48 -31 -69 -50 -22
-19 -44 -35 -49 -35 -5 0 -64 -37 -130 -83 -67 -46 -143 -96 -169 -111 -27
-15 -48 -30 -48 -35 0 -4 -16 -16 -35 -27 -43 -23 -43 -29 -5 -42 16 -6 49
-24 72 -40 l43 -30 35 25 c19 13 65 42 103 64 37 22 67 43 67 47 0 4 34 27 76
52 42 25 87 55 101 68 13 12 26 22 29 22 3 0 31 17 62 38 31 21 69 43 83 51
14 7 39 24 55 38 16 14 46 33 66 44 45 23 53 47 34 92 -14 36 -49 77 -64 77
-5 0 -58 -34 -118 -76z"/>
<path d="M2200 838 c-119 -120 -128 -139 -116 -223 5 -29 12 -45 22 -45 8 0
14 5 14 10 0 6 5 10 11 10 5 0 37 18 69 40 32 22 63 40 68 40 4 0 26 15 48 34
21 18 58 43 82 55 23 12 42 25 42 30 0 4 -11 20 -25 35 -14 15 -25 29 -25 32
0 12 -62 94 -71 94 -5 0 -59 -50 -119 -112z"/>
<path d="M905 808 c-2 -7 -15 -83 -30 -168 -14 -85 -29 -165 -32 -177 -5 -22
-2 -23 44 -23 l49 0 12 77 c12 76 23 96 52 90 10 -2 14 -13 13 -32 -1 -17 -3
-49 -5 -73 -3 -51 16 -72 66 -72 41 0 52 9 61 48 6 28 4 32 -15 32 -18 0 -21
4 -17 23 20 82 19 115 -3 137 -19 19 -30 22 -72 18 l-50 -5 6 36 c3 20 8 51
12 69 l7 32 -47 0 c-29 0 -48 -5 -51 -12z"/>
<path d="M1765 798 c-2 -13 -16 -90 -30 -173 -14 -82 -28 -158 -31 -167 -5
-16 2 -18 45 -18 44 0 51 3 51 19 0 30 11 51 26 51 8 0 14 -9 14 -20 0 -47 71
-76 121 -50 27 15 27 70 0 70 -32 0 -34 18 -7 51 31 37 34 88 8 112 -21 19
-74 22 -104 6 -23 -12 -23 -21 -2 104 l7 37 -47 0 c-39 0 -46 -3 -51 -22z"/>
<path d="M654 799 c-58 -16 -89 -65 -107 -167 -23 -123 -22 -139 12 -173 26
-25 37 -29 88 -29 90 0 152 41 169 113 6 27 6 27 -43 27 -43 0 -51 -3 -61 -24
-12 -28 -45 -39 -67 -22 -14 10 -15 20 -5 81 15 89 32 117 68 113 25 -3 27 -7
26 -45 l-1 -43 43 0 c50 0 64 17 64 77 0 50 -22 80 -68 93 -44 12 -75 12 -118
-1z"/>
<path d="M2366 705 c-52 -36 -99 -65 -103 -65 -4 0 -31 -18 -60 -40 -29 -21
-66 -46 -83 -55 -36 -19 -38 -34 -7 -67 12 -14 27 -34 33 -44 17 -30 65 -29
98 1 15 14 29 25 31 25 9 0 187 112 203 128 10 9 48 35 85 56 37 22 67 43 67
46 0 30 -96 80 -154 80 -8 0 -58 -29 -110 -65z"/>
<path d="M1219 667 c-40 -27 -58 -71 -58 -148 -1 -71 11 -82 93 -87 73 -4 117
18 134 67 l11 31 -50 0 c-28 0 -49 -5 -49 -11 0 -18 -45 -5 -48 14 -3 15 6 17
77 17 l81 0 0 48 c0 26 -4 52 -8 58 -27 40 -130 47 -183 11z"/>
<path d="M1499 667 c-41 -28 -55 -55 -64 -127 -9 -77 10 -101 88 -108 32 -2
69 1 85 7 27 11 62 57 62 80 0 15 -75 14 -100 -1 -31 -20 -46 2 -34 49 7 31
13 38 34 38 20 0 25 -4 23 -23 -3 -22 0 -23 45 -20 l47 3 3 41 c3 35 -1 45
-24 63 -38 30 -119 29 -165 -2z"/>
</g>
</svg>
